<svg xmlns="http://www.w3.org/2000/svg" xmlns:xlink="http://www.w3.org/1999/xlink" width="500" zoomAndPan="magnify" viewBox="0 0 375 374.999991" height="500" preserveAspectRatio="xMidYMid meet" version="1.0"><defs><g/><clipPath id="8c647adce0"><rect x="0" width="355" y="0" height="306"/></clipPath><clipPath id="a6bafaef3d"><path d="M 62 202 L 326 202 L 326 284 L 62 284 Z M 62 202 " clip-rule="nonzero"/></clipPath><clipPath id="05c59e9a1a"><path d="M 66.328125 191.273438 L 329.808594 219.640625 L 321.742188 294.585938 L 58.257812 266.21875 Z M 66.328125 191.273438 " clip-rule="nonzero"/></clipPath><clipPath id="6951e16505"><path d="M 198.050781 205.453125 C 125.300781 197.621094 64.523438 208.050781 62.292969 228.746094 C 60.066406 249.441406 117.234375 272.566406 189.980469 280.402344 C 262.730469 288.234375 323.507812 277.804688 325.738281 257.109375 C 327.964844 236.414062 270.796875 213.289062 198.050781 205.453125 Z M 198.050781 205.453125 " clip-rule="nonzero"/></clipPath><clipPath id="1a46841fa3"><path d="M 0 0 L 264 0 L 264 82 L 0 82 Z M 0 0 " clip-rule="nonzero"/></clipPath><clipPath id="26a7510324"><path d="M 4.328125 -10.726562 L 267.808594 17.640625 L 259.742188 92.585938 L -3.742188 64.21875 Z M 4.328125 -10.726562 " clip-rule="nonzero"/></clipPath><clipPath id="8ea63721bd"><path d="M 136.050781 3.453125 C 63.300781 -4.378906 2.523438 6.050781 0.292969 26.746094 C -1.933594 47.441406 55.234375 70.566406 127.980469 78.402344 C 200.730469 86.234375 261.507812 75.804688 263.738281 55.109375 C 265.964844 34.414062 208.796875 11.289062 136.050781 3.453125 Z M 136.050781 3.453125 " clip-rule="nonzero"/></clipPath><clipPath id="72000ba669"><rect x="0" width="264" y="0" height="82"/></clipPath><clipPath id="8e53a330b4"><path d="M 62 202 L 326 202 L 326 283 L 62 283 Z M 62 202 " clip-rule="nonzero"/></clipPath><clipPath id="b4620e65de"><path d="M 66.328125 191.273438 L 329.554688 219.613281 L 321.449219 294.929688 L 58.21875 266.585938 Z M 66.328125 191.273438 " clip-rule="nonzero"/></clipPath><clipPath id="4c703364c6"><path d="M 66.332031 191.273438 L 331.253906 219.796875 L 323.035156 296.128906 L 58.113281 267.605469 Z M 66.332031 191.273438 " clip-rule="nonzero"/></clipPath><clipPath id="55fbc0d810"><path d="M 198.046875 205.453125 C 125.304688 197.621094 64.527344 208.050781 62.296875 228.742188 C 60.070312 249.4375 117.234375 272.5625 189.976562 280.394531 C 262.722656 288.230469 323.5 277.800781 325.726562 257.105469 C 327.957031 236.414062 270.792969 213.285156 198.046875 205.453125 Z M 198.046875 205.453125 " clip-rule="nonzero"/></clipPath><clipPath id="83ae2ae246"><path d="M 309.203125 184.230469 L 354.953125 184.230469 L 354.953125 229.230469 L 309.203125 229.230469 Z M 309.203125 184.230469 " clip-rule="nonzero"/></clipPath></defs><g transform="matrix(1, 0, 0, 1, 20, 12)"><g clip-path="url(#8c647adce0)"><g fill="#000000" fill-opacity="1"><g transform="translate(20.538563, 171.054612)"><g><path d="M -1.765625 41.371094 C -0.734375 34.492188 0.734375 27.691406 2.636719 20.972656 L 8.222656 1.292969 C 10.03125 -5.066406 11.316406 -11.546875 12.078125 -18.140625 C 12.429688 -21.195312 12.371094 -24.417969 11.902344 -27.808594 C 11.359375 -31.742188 11.28125 -35.398438 11.667969 -38.769531 C 12.570312 -46.585938 16.507812 -52.628906 23.472656 -56.898438 C 30.179688 -61.007812 38.78125 -62.457031 49.277344 -61.246094 C 55.523438 -60.523438 61.347656 -58.761719 66.75 -55.960938 C 72.324219 -53.070312 76.6875 -49.085938 79.847656 -44.007812 C 83.089844 -38.796875 84.277344 -32.429688 83.410156 -24.90625 C 82.785156 -19.472656 80.816406 -14.675781 77.503906 -10.515625 C 74.226562 -6.398438 70.039062 -3.304688 64.9375 -1.234375 C 59.847656 0.828125 54.21875 1.503906 48.046875 0.792969 C 46.234375 0.585938 44.605469 0.332031 43.152344 0.0429688 C 41.878906 -0.214844 40.769531 -0.394531 39.824219 -0.503906 C 38.617188 -0.644531 37.6875 -0.628906 37.027344 -0.457031 C 36.773438 -0.390625 36.632812 -0.335938 36.597656 -0.289062 C 35.851562 0.824219 35.019531 3.5 34.105469 7.742188 C 31.753906 18.054688 29.507812 28.449219 27.367188 38.933594 C 25.210938 49.511719 22.710938 60.019531 19.867188 70.457031 C 16.574219 82.394531 11.367188 87.953125 4.246094 87.128906 C 0.152344 86.65625 -2.738281 84.058594 -4.417969 79.332031 C -5.816406 75.402344 -6.226562 70.949219 -5.652344 65.972656 C -5.167969 61.765625 -4.539062 57.605469 -3.769531 53.492188 C -3.019531 49.496094 -2.351562 45.460938 -1.769531 41.390625 Z M 4.664062 42.3125 C 4.066406 46.476562 3.386719 50.601562 2.621094 54.6875 C 1.875 58.652344 1.269531 62.664062 0.804688 66.71875 C 0.34375 70.695312 0.644531 74.171875 1.707031 77.152344 C 2.480469 79.339844 3.578125 80.511719 4.992188 80.675781 C 8.425781 81.070312 11.296875 77.097656 13.597656 68.75 C 16.40625 58.445312 18.871094 48.074219 21 37.636719 C 23.148438 27.101562 25.398438 16.683594 27.753906 6.375 C 28.84375 1.3125 29.996094 -2.117188 31.210938 -3.921875 C 32.929688 -6.46875 36.046875 -7.480469 40.570312 -6.960938 C 41.691406 -6.832031 42.980469 -6.621094 44.429688 -6.328125 C 45.707031 -6.074219 47.160156 -5.851562 48.792969 -5.664062 C 53.863281 -5.078125 58.433594 -5.609375 62.492188 -7.253906 C 66.542969 -8.898438 69.851562 -11.332031 72.421875 -14.5625 C 74.957031 -17.75 76.46875 -21.449219 76.957031 -25.652344 C 77.648438 -31.671875 76.773438 -36.644531 74.328125 -40.578125 C 71.800781 -44.644531 68.273438 -47.851562 63.757812 -50.191406 C 59.0625 -52.628906 53.988281 -54.160156 48.53125 -54.789062 C 39.519531 -55.828125 32.300781 -54.683594 26.867188 -51.359375 C 21.699219 -48.191406 18.785156 -43.746094 18.125 -38.023438 C 17.796875 -35.199219 17.871094 -32.089844 18.339844 -28.699219 C 18.882812 -24.765625 18.949219 -20.996094 18.535156 -17.394531 C 17.730469 -10.449219 16.378906 -3.628906 14.472656 3.070312 L 8.886719 22.742188 C 7.0625 29.195312 5.652344 35.726562 4.660156 42.332031 Z M 4.664062 42.3125 "/></g></g></g><g fill="#000000" fill-opacity="1"><g transform="translate(101.944987, 180.450207)"><g><path d="M 45.96875 -57.132812 C 45.191406 -50.386719 44.121094 -43.671875 42.757812 -36.992188 C 41.4375 -30.496094 40.390625 -23.90625 39.617188 -17.230469 C 39.269531 -14.210938 39.195312 -11.1875 39.390625 -8.160156 C 39.613281 -4.742188 39.535156 -1.390625 39.15625 1.902344 C 38.847656 4.558594 37.761719 7.113281 35.894531 9.5625 C 34.152344 11.847656 32.113281 13.734375 29.78125 15.21875 C 27.125 16.914062 24.496094 17.609375 21.898438 17.308594 C 19.445312 17.027344 17.070312 15.773438 14.761719 13.546875 C 12.726562 11.578125 11.007812 9.230469 9.609375 6.5 C 8.152344 3.652344 7.382812 0.757812 7.304688 -2.183594 L 7.304688 -2.285156 C 7.34375 -11.816406 7.90625 -21.292969 8.992188 -30.707031 C 10.351562 -42.46875 12.09375 -54.539062 14.222656 -66.910156 C 16.34375 -79.238281 18.492188 -91.269531 20.660156 -103.007812 C 21.792969 -109.511719 23.53125 -114.101562 25.875 -116.777344 C 28.5625 -119.847656 32.425781 -121.09375 37.457031 -120.515625 C 42.671875 -119.914062 46.703125 -117.566406 49.558594 -113.480469 C 52.324219 -109.519531 53.378906 -104.71875 52.730469 -99.085938 C 51.988281 -92.652344 50.90625 -86.375 49.488281 -80.253906 C 48.125 -74.371094 47.101562 -68.449219 46.414062 -62.492188 L 46.113281 -59.910156 C 46.023438 -59.125 45.984375 -58.335938 45.988281 -57.539062 L 45.992188 -57.335938 Z M 39.511719 -57.878906 L 42.742188 -57.507812 L 39.492188 -57.476562 C 39.480469 -58.542969 39.539062 -59.601562 39.660156 -60.652344 L 39.957031 -63.234375 C 40.671875 -69.4375 41.738281 -75.601562 43.15625 -81.722656 C 44.519531 -87.605469 45.558594 -93.640625 46.273438 -99.832031 C 46.734375 -103.835938 46.054688 -107.144531 44.230469 -109.761719 C 42.492188 -112.246094 39.984375 -113.679688 36.710938 -114.058594 C 33.9375 -114.378906 31.957031 -113.859375 30.761719 -112.496094 C 29.21875 -110.734375 27.984375 -107.179688 27.050781 -101.828125 C 24.886719 -90.113281 22.746094 -78.109375 20.628906 -65.808594 C 18.519531 -53.554688 16.792969 -41.605469 15.449219 -29.960938 C 14.390625 -20.785156 13.839844 -11.550781 13.800781 -2.257812 L 10.550781 -2.269531 L 13.800781 -2.359375 C 13.851562 -0.398438 14.382812 1.566406 15.394531 3.539062 C 16.464844 5.625 17.757812 7.402344 19.277344 8.871094 C 20.527344 10.078125 21.648438 10.738281 22.640625 10.855469 C 23.714844 10.976562 24.929688 10.605469 26.289062 9.738281 C 27.972656 8.667969 29.449219 7.296875 30.726562 5.625 C 31.871094 4.121094 32.527344 2.632812 32.699219 1.15625 C 33.035156 -1.746094 33.105469 -4.710938 32.90625 -7.738281 C 32.683594 -11.15625 32.769531 -14.566406 33.164062 -17.972656 C 33.957031 -24.835938 35.03125 -31.609375 36.390625 -38.289062 C 37.714844 -44.785156 38.753906 -51.316406 39.511719 -57.878906 Z M 39.511719 -57.878906 "/></g></g></g><g fill="#000000" fill-opacity="1"><g transform="translate(144.62745, 185.376442)"><g><path d="M 10.046875 -39.367188 C 10.777344 -41.773438 11.476562 -44.386719 12.140625 -47.207031 C 12.867188 -50.28125 13.824219 -53.179688 15.007812 -55.90625 C 16.316406 -58.910156 18.03125 -61.316406 20.152344 -63.128906 C 22.613281 -65.226562 25.742188 -66.054688 29.550781 -65.613281 C 33.769531 -65.128906 37.425781 -62.933594 40.519531 -59.03125 C 43.617188 -55.128906 44.867188 -50.605469 44.273438 -45.46875 L 44.238281 -45.164062 L 44.148438 -44.871094 C 43.367188 -42.378906 42.367188 -39.824219 41.148438 -37.210938 C 40.136719 -35.046875 39.5 -32.820312 39.234375 -30.527344 C 39.21875 -30.378906 39.296875 -30.128906 39.472656 -29.785156 C 39.449219 -29.835938 39.398438 -29.882812 39.320312 -29.933594 C 39.292969 -29.953125 39.273438 -29.964844 39.257812 -29.96875 C 39.285156 -29.960938 39.328125 -29.953125 39.386719 -29.945312 C 39.832031 -29.894531 40.453125 -30.347656 41.257812 -31.308594 C 42.664062 -32.988281 44.054688 -35.128906 45.433594 -37.722656 C 46.941406 -40.554688 48.503906 -43.351562 50.117188 -46.113281 C 51.875 -49.113281 53.84375 -51.625 56.035156 -53.652344 C 58.71875 -56.140625 61.703125 -57.195312 64.984375 -56.816406 C 67.140625 -56.566406 69.382812 -55.625 71.714844 -53.984375 C 73.992188 -52.386719 75.855469 -50.316406 77.304688 -47.78125 C 78.867188 -45.046875 79.453125 -42.007812 79.070312 -38.664062 C 78.902344 -37.238281 78.46875 -35.984375 77.765625 -34.910156 L 75.046875 -36.6875 L 77.925781 -35.179688 C 75.652344 -30.835938 73.066406 -26.300781 70.164062 -21.570312 C 67.199219 -16.738281 63.882812 -12.25 60.214844 -8.097656 C 56.425781 -3.808594 52.285156 -0.417969 47.796875 2.070312 C 43.027344 4.71875 37.886719 5.726562 32.375 5.089844 C 25.984375 4.351562 20.90625 2.035156 17.148438 -1.859375 C 13.527344 -5.613281 11.089844 -9.984375 9.832031 -14.976562 C 8.617188 -19.789062 8.257812 -24.34375 8.753906 -28.640625 C 8.953125 -30.355469 9.25 -32.113281 9.644531 -33.921875 C 10.007812 -35.585938 10.339844 -37.257812 10.648438 -38.929688 L 13.84375 -38.34375 L 13.472656 -35.113281 L 13.300781 -35.136719 L 8.914062 -35.640625 Z M 16.265625 -37.480469 L 13.15625 -38.421875 L 13.527344 -41.648438 L 14.042969 -41.589844 L 17.667969 -41.171875 L 17.039062 -37.757812 C 16.71875 -36.011719 16.371094 -34.273438 15.992188 -32.539062 C 15.644531 -30.941406 15.382812 -29.394531 15.210938 -27.894531 C 14.804688 -24.386719 15.113281 -20.609375 16.132812 -16.5625 C 17.109375 -12.691406 19.003906 -9.292969 21.824219 -6.375 C 24.503906 -3.59375 28.269531 -1.925781 33.121094 -1.367188 C 37.25 -0.890625 41.089844 -1.636719 44.644531 -3.609375 C 48.480469 -5.742188 52.046875 -8.671875 55.347656 -12.402344 C 58.765625 -16.269531 61.859375 -20.457031 64.625 -24.964844 C 67.449219 -29.574219 69.964844 -33.980469 72.167969 -38.191406 L 72.238281 -38.332031 L 72.324219 -38.460938 C 72.46875 -38.683594 72.566406 -39 72.613281 -39.410156 C 72.835938 -41.34375 72.519531 -43.058594 71.664062 -44.558594 C 70.695312 -46.253906 69.464844 -47.625 67.980469 -48.667969 C 66.546875 -49.671875 65.300781 -50.238281 64.242188 -50.359375 C 62.9375 -50.511719 61.671875 -50.019531 60.449219 -48.886719 C 58.730469 -47.296875 57.15625 -45.277344 55.726562 -42.832031 C 54.15625 -40.144531 52.636719 -37.425781 51.171875 -34.671875 C 49.582031 -31.679688 47.9375 -29.167969 46.242188 -27.140625 C 43.941406 -24.386719 41.40625 -23.171875 38.640625 -23.488281 C 36.339844 -23.753906 34.691406 -24.867188 33.6875 -26.824219 C 32.914062 -28.335938 32.613281 -29.820312 32.78125 -31.273438 C 33.125 -34.261719 33.949219 -37.15625 35.257812 -39.957031 C 36.355469 -42.308594 37.25 -44.59375 37.945312 -46.8125 L 41.046875 -45.84375 L 37.816406 -46.214844 C 38.207031 -49.570312 37.410156 -52.496094 35.429688 -54.992188 C 33.449219 -57.488281 31.242188 -58.878906 28.804688 -59.160156 C 26.871094 -59.382812 25.394531 -59.058594 24.371094 -58.183594 C 23.011719 -57.023438 21.875 -55.398438 20.96875 -53.3125 C 19.9375 -50.941406 19.101562 -48.410156 18.464844 -45.710938 C 17.769531 -42.757812 17.035156 -40.015625 16.265625 -37.480469 Z M 16.265625 -37.480469 "/></g></g></g><g fill="#000000" fill-opacity="1"><g transform="translate(215.019049, 193.500751)"><g><path d="M 85.050781 -73.75 C 86.734375 -73.085938 88.558594 -72.34375 90.519531 -71.53125 C 92.863281 -70.558594 94.839844 -69.261719 96.445312 -67.640625 C 98.480469 -65.589844 99.308594 -62.898438 98.921875 -59.570312 C 98.539062 -56.253906 96.699219 -53.894531 93.40625 -52.484375 C 91.378906 -51.617188 89.484375 -50.679688 87.722656 -49.679688 C 85.152344 -48.175781 82.429688 -47.554688 79.554688 -47.808594 C 77.460938 -47.996094 75.410156 -48.09375 73.410156 -48.101562 L 73.34375 -48.101562 L 73.277344 -48.105469 C 68.65625 -48.3125 64.925781 -48.011719 62.078125 -47.195312 C 59.488281 -46.457031 57.335938 -45.132812 55.617188 -43.222656 C 53.71875 -41.113281 51.890625 -38.0625 50.136719 -34.0625 C 48.746094 -30.746094 47.515625 -27.421875 46.453125 -24.09375 C 45.414062 -20.839844 44.640625 -17.472656 44.128906 -13.992188 C 43.496094 -9.753906 41.515625 -6.21875 38.1875 -3.390625 C 34.765625 -0.476562 30.976562 0.742188 26.828125 0.261719 C 24.460938 -0.0117188 22.03125 -0.996094 19.542969 -2.699219 C 17.210938 -4.292969 15.179688 -6.214844 13.453125 -8.46875 C 11.574219 -10.921875 10.480469 -13.445312 10.179688 -16.039062 L 13.40625 -16.417969 L 10.199219 -15.890625 C 9.882812 -17.808594 9.804688 -19.738281 9.960938 -21.671875 C 10.097656 -23.382812 10.261719 -25.054688 10.449219 -26.699219 C 10.601562 -28.011719 10.78125 -29.320312 10.992188 -30.621094 C 11.1875 -31.828125 11.351562 -32.984375 11.476562 -34.082031 C 11.714844 -36.148438 11.84375 -38.230469 11.867188 -40.320312 C 11.886719 -42.308594 11.699219 -44.328125 11.300781 -46.371094 L 14.492188 -46.988281 L 11.4375 -45.878906 C 11.089844 -46.84375 11 -48.097656 11.179688 -49.636719 C 11.613281 -53.390625 13.882812 -56.636719 17.996094 -59.371094 C 21.429688 -61.65625 25.5 -63.828125 30.203125 -65.882812 C 34.710938 -67.847656 38.859375 -69.710938 42.644531 -71.46875 C 45.367188 -72.75 48.164062 -73.8125 51.035156 -74.648438 C 54.164062 -75.566406 57.4375 -75.824219 60.855469 -75.429688 C 62.453125 -75.246094 64.03125 -74.894531 65.585938 -74.378906 C 66.71875 -74.003906 67.863281 -73.75 69.019531 -73.617188 C 71.34375 -73.347656 73.667969 -73.292969 75.988281 -73.453125 L 84.371094 -74.015625 Z M 82.667969 -67.703125 L 83.859375 -70.726562 L 84.074219 -67.484375 L 76.4375 -66.972656 C 73.71875 -66.785156 70.996094 -66.847656 68.273438 -67.160156 C 66.675781 -67.347656 65.097656 -67.695312 63.542969 -68.210938 C 62.410156 -68.585938 61.265625 -68.84375 60.109375 -68.976562 C 57.5625 -69.269531 55.144531 -69.082031 52.859375 -68.414062 C 50.3125 -67.667969 47.820312 -66.722656 45.382812 -65.578125 C 41.550781 -63.796875 37.355469 -61.914062 32.804688 -59.925781 C 28.449219 -58.023438 24.710938 -56.035156 21.597656 -53.960938 C 19.15625 -52.339844 17.835938 -50.648438 17.632812 -48.894531 C 17.59375 -48.542969 17.578125 -48.257812 17.585938 -48.042969 C 17.585938 -47.992188 17.589844 -47.953125 17.59375 -47.933594 C 17.585938 -47.976562 17.570312 -48.03125 17.546875 -48.097656 L 17.632812 -47.859375 L 17.683594 -47.605469 C 18.160156 -45.132812 18.386719 -42.683594 18.363281 -40.257812 C 18.339844 -37.9375 18.195312 -35.628906 17.933594 -33.335938 C 17.792969 -32.140625 17.621094 -30.890625 17.410156 -29.585938 C 17.214844 -28.378906 17.046875 -27.167969 16.90625 -25.953125 C 16.722656 -24.386719 16.566406 -22.785156 16.4375 -21.152344 C 16.324219 -19.746094 16.382812 -18.34375 16.613281 -16.945312 L 16.625 -16.871094 L 16.632812 -16.792969 C 16.796875 -15.382812 17.457031 -13.925781 18.609375 -12.421875 C 19.914062 -10.722656 21.449219 -9.269531 23.210938 -8.0625 C 24.816406 -6.96875 26.269531 -6.34375 27.574219 -6.191406 C 29.851562 -5.929688 31.988281 -6.644531 33.976562 -8.339844 C 36.066406 -10.117188 37.304688 -12.316406 37.699219 -14.9375 C 38.261719 -18.769531 39.117188 -22.480469 40.265625 -26.070312 C 41.386719 -29.582031 42.691406 -33.117188 44.1875 -36.675781 C 46.222656 -41.3125 48.421875 -44.945312 50.789062 -47.574219 C 53.339844 -50.40625 56.507812 -52.363281 60.289062 -53.445312 C 63.816406 -54.453125 68.246094 -54.835938 73.570312 -54.59375 L 73.425781 -51.347656 L 73.4375 -54.597656 C 75.621094 -54.589844 77.851562 -54.484375 80.128906 -54.28125 C 81.628906 -54.148438 83.089844 -54.496094 84.507812 -55.324219 C 86.480469 -56.449219 88.59375 -57.492188 90.847656 -58.457031 C 91.832031 -58.878906 92.371094 -59.496094 92.46875 -60.3125 C 92.613281 -61.574219 92.402344 -62.492188 91.832031 -63.066406 C 90.835938 -64.070312 89.570312 -64.890625 88.027344 -65.53125 C 86.105469 -66.328125 84.316406 -67.054688 82.667969 -67.703125 Z M 82.667969 -67.703125 "/></g></g></g><g fill="#000000" fill-opacity="1"><g transform="translate(294.015945, 202.618249)"><g><path d="M 7.089844 -14.03125 C 7.886719 -17.433594 9.351562 -20.519531 11.480469 -23.292969 C 13.582031 -26.023438 15.996094 -28.203125 18.726562 -29.828125 C 21.726562 -31.613281 24.679688 -32.339844 27.589844 -32.003906 C 29.6875 -31.761719 31.761719 -30.660156 33.804688 -28.703125 C 35.523438 -27.058594 37.113281 -25.058594 38.582031 -22.695312 C 40.03125 -20.363281 41.167969 -18.027344 41.988281 -15.679688 C 42.898438 -13.089844 43.242188 -10.859375 43.027344 -8.988281 L 42.992188 -8.683594 L 42.902344 -8.390625 C 41.996094 -5.496094 40.328125 -2.894531 37.894531 -0.589844 C 35.542969 1.636719 32.820312 3.3125 29.730469 4.4375 C 26.578125 5.582031 23.429688 5.976562 20.28125 5.613281 C 14.917969 4.992188 11.175781 2.730469 9.058594 -1.175781 C 7.148438 -4.691406 6.472656 -8.855469 7.027344 -13.664062 L 7.046875 -13.851562 Z M 13.417969 -12.550781 L 10.253906 -13.292969 L 13.484375 -12.921875 C 13.085938 -9.46875 13.511719 -6.585938 14.769531 -4.273438 C 15.8125 -2.347656 17.898438 -1.203125 21.027344 -0.84375 C 23.160156 -0.597656 25.320312 -0.871094 27.507812 -1.667969 C 29.753906 -2.484375 31.726562 -3.699219 33.425781 -5.304688 C 35.039062 -6.835938 36.128906 -8.511719 36.699219 -10.328125 L 39.800781 -9.359375 L 36.574219 -9.730469 C 36.675781 -10.613281 36.4375 -11.878906 35.855469 -13.53125 C 35.191406 -15.425781 34.261719 -17.339844 33.0625 -19.265625 C 31.882812 -21.164062 30.632812 -22.746094 29.3125 -24.011719 C 28.320312 -24.960938 27.496094 -25.472656 26.84375 -25.546875 C 25.390625 -25.714844 23.792969 -25.28125 22.050781 -24.242188 C 20.035156 -23.042969 18.230469 -21.40625 16.632812 -19.332031 C 15.074219 -17.300781 14 -15.039062 13.417969 -12.550781 Z M 13.417969 -12.550781 "/></g></g></g><g fill="#000000" fill-opacity="1"><g transform="translate(20.538563, 171.054612)"><g><path d="M 1.4375 41.84375 C 2.445312 35.101562 3.882812 28.4375 5.75 21.84375 C 7.625 15.257812 9.488281 8.703125 11.34375 2.171875 C 13.195312 -4.347656 14.515625 -10.992188 15.296875 -17.765625 C 15.679688 -21.097656 15.617188 -24.59375 15.109375 -28.25 C 14.609375 -31.914062 14.535156 -35.296875 14.890625 -38.390625 C 15.671875 -45.171875 19.09375 -50.414062 25.15625 -54.125 C 31.226562 -57.832031 39.144531 -59.125 48.90625 -58 C 54.757812 -57.320312 60.207031 -55.675781 65.25 -53.0625 C 70.300781 -50.457031 74.25 -46.867188 77.09375 -42.296875 C 79.9375 -37.722656 80.96875 -32.050781 80.1875 -25.28125 C 79.625 -20.46875 77.882812 -16.222656 74.96875 -12.546875 C 72.050781 -8.867188 68.300781 -6.101562 63.71875 -4.25 C 59.132812 -2.394531 54.035156 -1.789062 48.421875 -2.4375 C 46.691406 -2.632812 45.144531 -2.867188 43.78125 -3.140625 C 42.425781 -3.410156 41.226562 -3.601562 40.1875 -3.71875 C 36.976562 -4.09375 34.882812 -3.550781 33.90625 -2.09375 C 32.925781 -0.632812 31.9375 2.414062 30.9375 7.0625 C 28.570312 17.375 26.320312 27.78125 24.1875 38.28125 C 22.050781 48.78125 19.570312 59.226562 16.75 69.625 C 13.9375 79.757812 9.890625 84.519531 4.609375 83.90625 C 1.859375 83.59375 -0.125 81.703125 -1.34375 78.234375 C -2.570312 74.773438 -2.929688 70.8125 -2.421875 66.34375 C -1.941406 62.21875 -1.328125 58.128906 -0.578125 54.078125 C 0.171875 50.035156 0.84375 45.957031 1.4375 41.84375 Z M 1.4375 41.84375 "/></g></g></g><g fill="#000000" fill-opacity="1"><g transform="translate(101.944987, 180.450207)"><g><path d="M 42.734375 -57.515625 C 41.960938 -50.859375 40.910156 -44.234375 39.578125 -37.640625 C 38.242188 -31.046875 37.1875 -24.363281 36.40625 -17.59375 C 36.03125 -14.382812 35.941406 -11.171875 36.140625 -7.953125 C 36.347656 -4.734375 36.273438 -1.570312 35.921875 1.53125 C 35.679688 3.59375 34.804688 5.613281 33.296875 7.59375 C 31.785156 9.570312 30.03125 11.203125 28.03125 12.484375 C 26.03125 13.765625 24.109375 14.296875 22.265625 14.078125 C 20.546875 13.878906 18.796875 12.921875 17.015625 11.203125 C 15.242188 9.492188 13.738281 7.429688 12.5 5.015625 C 11.269531 2.609375 10.617188 0.175781 10.546875 -2.28125 C 10.578125 -11.6875 11.128906 -21.035156 12.203125 -30.328125 C 13.554688 -42.023438 15.296875 -54.03125 17.421875 -66.34375 C 19.546875 -78.664062 21.691406 -90.691406 23.859375 -102.421875 C 24.890625 -108.347656 26.375 -112.421875 28.3125 -114.640625 C 30.257812 -116.859375 33.179688 -117.738281 37.078125 -117.28125 C 41.316406 -116.789062 44.582031 -114.898438 46.875 -111.609375 C 49.175781 -108.328125 50.050781 -104.28125 49.5 -99.46875 C 48.769531 -93.15625 47.707031 -86.992188 46.3125 -80.984375 C 44.925781 -74.984375 43.882812 -68.941406 43.1875 -62.859375 C 43.09375 -62.054688 42.988281 -61.195312 42.875 -60.28125 C 42.769531 -59.363281 42.722656 -58.441406 42.734375 -57.515625 Z M 42.734375 -57.515625 "/></g></g></g><g fill="#000000" fill-opacity="1"><g transform="translate(144.62745, 185.376442)"><g><path d="M 13.140625 -38.40625 C 13.898438 -40.882812 14.617188 -43.566406 15.296875 -46.453125 C 15.984375 -49.347656 16.878906 -52.066406 17.984375 -54.609375 C 19.097656 -57.160156 20.523438 -59.175781 22.265625 -60.65625 C 24.003906 -62.144531 26.304688 -62.722656 29.171875 -62.390625 C 32.503906 -62.003906 35.4375 -60.207031 37.96875 -57 C 40.507812 -53.800781 41.535156 -50.082031 41.046875 -45.84375 C 40.304688 -43.476562 39.359375 -41.054688 38.203125 -38.578125 C 37.046875 -36.097656 36.316406 -33.535156 36.015625 -30.890625 C 35.921875 -30.085938 36.109375 -29.222656 36.578125 -28.296875 C 37.054688 -27.378906 37.867188 -26.851562 39.015625 -26.71875 C 40.628906 -26.53125 42.207031 -27.363281 43.75 -29.21875 C 45.300781 -31.070312 46.816406 -33.398438 48.296875 -36.203125 C 49.785156 -39.003906 51.320312 -41.765625 52.90625 -44.484375 C 54.5 -47.203125 56.273438 -49.460938 58.234375 -51.265625 C 60.191406 -53.078125 62.316406 -53.847656 64.609375 -53.578125 C 66.210938 -53.390625 67.957031 -52.632812 69.84375 -51.3125 C 71.726562 -50 73.273438 -48.28125 74.484375 -46.15625 C 75.691406 -44.039062 76.140625 -41.664062 75.828125 -39.03125 C 75.722656 -38.125 75.460938 -37.34375 75.046875 -36.6875 C 72.804688 -32.414062 70.253906 -27.941406 67.390625 -23.265625 C 64.523438 -18.597656 61.320312 -14.257812 57.78125 -10.25 C 54.238281 -6.238281 50.382812 -3.078125 46.21875 -0.765625 C 42.0625 1.546875 37.570312 2.421875 32.75 1.859375 C 27.125 1.210938 22.703125 -0.773438 19.484375 -4.109375 C 16.265625 -7.453125 14.09375 -11.335938 12.96875 -15.765625 C 11.851562 -20.191406 11.519531 -24.359375 11.96875 -28.265625 C 12.15625 -29.867188 12.4375 -31.519531 12.8125 -33.21875 C 13.1875 -34.925781 13.53125 -36.628906 13.84375 -38.328125 C 13.84375 -38.328125 13.785156 -38.332031 13.671875 -38.34375 C 13.554688 -38.363281 13.378906 -38.382812 13.140625 -38.40625 Z M 13.140625 -38.40625 "/></g></g></g><g fill="#000000" fill-opacity="1"><g transform="translate(215.019049, 193.500751)"><g><path d="M 83.859375 -70.71875 C 85.523438 -70.070312 87.328125 -69.34375 89.265625 -68.53125 C 91.210938 -67.726562 92.835938 -66.671875 94.140625 -65.359375 C 95.441406 -64.046875 95.957031 -62.238281 95.6875 -59.9375 C 95.457031 -57.875 94.269531 -56.382812 92.125 -55.46875 C 89.976562 -54.550781 87.972656 -53.5625 86.109375 -52.5 C 84.117188 -51.34375 82.03125 -50.859375 79.84375 -51.046875 C 77.65625 -51.242188 75.515625 -51.347656 73.421875 -51.359375 C 68.453125 -51.578125 64.375 -51.226562 61.1875 -50.3125 C 58 -49.40625 55.335938 -47.765625 53.203125 -45.390625 C 51.066406 -43.023438 49.054688 -39.6875 47.171875 -35.375 C 45.722656 -31.925781 44.453125 -28.492188 43.359375 -25.078125 C 42.265625 -21.671875 41.453125 -18.132812 40.921875 -14.46875 C 40.410156 -11.03125 38.796875 -8.160156 36.078125 -5.859375 C 33.367188 -3.554688 30.410156 -2.585938 27.203125 -2.953125 C 25.359375 -3.171875 23.414062 -3.976562 21.375 -5.375 C 19.332031 -6.78125 17.550781 -8.472656 16.03125 -10.453125 C 14.507812 -12.429688 13.632812 -14.414062 13.40625 -16.40625 C 13.132812 -18.0625 13.066406 -19.722656 13.203125 -21.390625 C 13.335938 -23.066406 13.492188 -24.707031 13.671875 -26.3125 C 13.816406 -27.570312 13.988281 -28.832031 14.1875 -30.09375 C 14.394531 -31.351562 14.566406 -32.554688 14.703125 -33.703125 C 14.953125 -35.890625 15.085938 -38.082031 15.109375 -40.28125 C 15.140625 -42.488281 14.9375 -44.726562 14.5 -47 C 14.3125 -47.46875 14.273438 -48.222656 14.390625 -49.265625 C 14.710938 -52.015625 16.515625 -54.476562 19.796875 -56.65625 C 23.078125 -58.84375 26.976562 -60.921875 31.5 -62.890625 C 36.03125 -64.867188 40.203125 -66.75 44.015625 -68.53125 C 46.585938 -69.738281 49.226562 -70.738281 51.9375 -71.53125 C 54.644531 -72.320312 57.492188 -72.546875 60.484375 -72.203125 C 61.859375 -72.046875 63.21875 -71.742188 64.5625 -71.296875 C 65.90625 -70.847656 67.269531 -70.546875 68.65625 -70.390625 C 71.175781 -70.097656 73.695312 -70.039062 76.21875 -70.21875 C 78.738281 -70.394531 81.285156 -70.5625 83.859375 -70.71875 Z M 83.859375 -70.71875 "/></g></g></g><g fill="#000000" fill-opacity="1"><g transform="translate(294.015945, 202.618249)"><g><path d="M 10.234375 -13.28125 C 10.941406 -16.238281 12.21875 -18.914062 14.0625 -21.3125 C 15.90625 -23.71875 18.015625 -25.625 20.390625 -27.03125 C 22.765625 -28.445312 25.039062 -29.03125 27.21875 -28.78125 C 28.59375 -28.625 30.039062 -27.816406 31.5625 -26.359375 C 33.082031 -24.898438 34.5 -23.101562 35.8125 -20.96875 C 37.132812 -18.84375 38.171875 -16.71875 38.921875 -14.59375 C 39.671875 -12.476562 39.96875 -10.734375 39.8125 -9.359375 C 39.0625 -7.003906 37.675781 -4.863281 35.65625 -2.9375 C 33.632812 -1.019531 31.289062 0.421875 28.625 1.390625 C 25.957031 2.359375 23.300781 2.691406 20.65625 2.390625 C 16.40625 1.890625 13.488281 0.1875 11.90625 -2.71875 C 10.320312 -5.632812 9.765625 -9.15625 10.234375 -13.28125 Z M 10.234375 -13.28125 "/></g></g></g></g></g><g fill="#000000" fill-opacity="1"><g transform="translate(31.639779, 194.754055)"><g><path d="M -1.765625 41.375 C -0.734375 34.496094 0.734375 27.695312 2.636719 20.972656 L 8.222656 1.292969 C 10.035156 -5.066406 11.320312 -11.546875 12.082031 -18.144531 C 12.433594 -21.199219 12.375 -24.421875 11.90625 -27.8125 C 11.359375 -31.746094 11.28125 -35.402344 11.671875 -38.773438 C 12.574219 -46.59375 16.507812 -52.636719 23.476562 -56.90625 C 30.183594 -61.015625 38.785156 -62.464844 49.285156 -61.253906 C 55.53125 -60.53125 61.355469 -58.769531 66.757812 -55.96875 C 72.332031 -53.078125 76.699219 -49.09375 79.859375 -44.015625 C 83.101562 -38.800781 84.289062 -32.433594 83.421875 -24.910156 C 82.792969 -19.476562 80.824219 -14.675781 77.515625 -10.519531 C 74.238281 -6.398438 70.046875 -3.304688 64.945312 -1.234375 C 59.855469 0.828125 54.226562 1.503906 48.054688 0.792969 C 46.242188 0.582031 44.609375 0.332031 43.160156 0.0429688 C 41.882812 -0.214844 40.773438 -0.394531 39.832031 -0.503906 C 38.625 -0.644531 37.691406 -0.628906 37.035156 -0.457031 C 36.777344 -0.394531 36.636719 -0.335938 36.601562 -0.289062 C 35.855469 0.820312 35.023438 3.5 34.109375 7.742188 C 31.757812 18.054688 29.511719 28.453125 27.371094 38.9375 C 25.214844 49.515625 22.714844 60.027344 19.871094 70.46875 C 16.578125 82.40625 11.367188 87.964844 4.246094 87.140625 C 0.152344 86.667969 -2.738281 84.070312 -4.417969 79.34375 C -5.816406 75.410156 -6.226562 70.957031 -5.652344 65.984375 C -5.167969 61.777344 -4.539062 57.613281 -3.769531 53.5 C -3.019531 49.503906 -2.351562 45.46875 -1.765625 41.394531 Z M 4.664062 42.320312 C 4.066406 46.484375 3.386719 50.609375 2.621094 54.695312 C 1.875 58.660156 1.269531 62.671875 0.800781 66.726562 C 0.34375 70.703125 0.644531 74.183594 1.703125 77.164062 C 2.480469 79.347656 3.578125 80.523438 4.992188 80.6875 C 8.425781 81.082031 11.296875 77.109375 13.601562 68.757812 C 16.40625 58.453125 18.875 48.082031 21.003906 37.640625 C 23.152344 27.105469 25.402344 16.683594 27.757812 6.375 C 28.847656 1.3125 30 -2.117188 31.214844 -3.921875 C 32.933594 -6.46875 36.054688 -7.484375 40.574219 -6.960938 C 41.699219 -6.832031 42.984375 -6.621094 44.4375 -6.328125 C 45.710938 -6.074219 47.167969 -5.851562 48.796875 -5.664062 C 53.871094 -5.078125 58.441406 -5.609375 62.503906 -7.257812 C 66.550781 -8.898438 69.859375 -11.335938 72.429688 -14.5625 C 74.96875 -17.753906 76.480469 -21.449219 76.964844 -25.65625 C 77.660156 -31.675781 76.785156 -36.652344 74.339844 -40.582031 C 71.808594 -44.652344 68.285156 -47.855469 63.765625 -50.199219 C 59.070312 -52.636719 53.996094 -54.167969 48.539062 -54.796875 C 39.527344 -55.835938 32.304688 -54.691406 26.871094 -51.363281 C 21.703125 -48.199219 18.785156 -43.753906 18.125 -38.027344 C 17.800781 -35.203125 17.871094 -32.09375 18.339844 -28.703125 C 18.886719 -24.769531 18.953125 -21 18.535156 -17.398438 C 17.734375 -10.453125 16.378906 -3.628906 14.472656 3.070312 L 8.890625 22.746094 C 7.0625 29.199219 5.652344 35.730469 4.660156 42.339844 Z M 4.664062 42.320312 "/></g></g></g><g fill="#000000" fill-opacity="1"><g transform="translate(113.063143, 204.151607)"><g><path d="M 45.972656 -57.140625 C 45.195312 -50.394531 44.125 -43.679688 42.765625 -36.996094 C 41.441406 -30.5 40.394531 -23.910156 39.625 -17.230469 C 39.273438 -14.210938 39.199219 -11.1875 39.394531 -8.160156 C 39.617188 -4.746094 39.539062 -1.390625 39.160156 1.902344 C 38.851562 4.558594 37.765625 7.113281 35.898438 9.566406 C 34.15625 11.847656 32.117188 13.734375 29.785156 15.222656 C 27.128906 16.914062 24.5 17.613281 21.898438 17.3125 C 19.449219 17.027344 17.070312 15.773438 14.765625 13.546875 C 12.726562 11.578125 11.007812 9.230469 9.609375 6.5 C 8.152344 3.652344 7.386719 0.757812 7.304688 -2.183594 L 7.304688 -2.285156 C 7.34375 -11.820312 7.910156 -21.292969 8.996094 -30.710938 C 10.351562 -42.476562 12.097656 -54.542969 14.226562 -66.917969 C 16.347656 -79.246094 18.492188 -91.28125 20.664062 -103.023438 C 21.796875 -109.527344 23.535156 -114.117188 25.878906 -116.792969 C 28.566406 -119.863281 32.429688 -121.109375 37.460938 -120.53125 C 42.675781 -119.929688 46.710938 -117.582031 49.5625 -113.496094 C 52.328125 -109.53125 53.386719 -104.734375 52.734375 -99.097656 C 51.992188 -92.667969 50.914062 -86.386719 49.496094 -80.265625 C 48.132812 -74.382812 47.105469 -68.460938 46.417969 -62.5 L 46.121094 -59.917969 C 46.03125 -59.132812 45.988281 -58.34375 45.996094 -57.546875 L 45.996094 -57.34375 Z M 39.519531 -57.886719 L 42.746094 -57.515625 L 39.496094 -57.484375 C 39.488281 -58.550781 39.542969 -59.609375 39.664062 -60.660156 L 39.960938 -63.242188 C 40.679688 -69.449219 41.746094 -75.609375 43.164062 -81.734375 C 44.527344 -87.617188 45.566406 -93.652344 46.28125 -99.84375 C 46.742188 -103.847656 46.0625 -107.160156 44.234375 -109.773438 C 42.5 -112.261719 39.992188 -113.695312 36.714844 -114.074219 C 33.941406 -114.394531 31.960938 -113.875 30.765625 -112.511719 C 29.222656 -110.75 27.988281 -107.191406 27.054688 -101.84375 C 24.886719 -90.128906 22.746094 -78.117188 20.628906 -65.816406 C 18.523438 -53.5625 16.796875 -41.609375 15.449219 -29.964844 C 14.390625 -20.789062 13.84375 -11.550781 13.804688 -2.257812 L 10.554688 -2.269531 L 13.800781 -2.359375 C 13.855469 -0.398438 14.386719 1.566406 15.394531 3.539062 C 16.464844 5.628906 17.757812 7.40625 19.277344 8.871094 C 20.53125 10.078125 21.652344 10.742188 22.644531 10.855469 C 23.71875 10.980469 24.933594 10.609375 26.292969 9.742188 C 27.976562 8.667969 29.457031 7.296875 30.730469 5.625 C 31.875 4.121094 32.535156 2.632812 32.703125 1.15625 C 33.039062 -1.746094 33.109375 -4.710938 32.910156 -7.738281 C 32.691406 -11.15625 32.773438 -14.570312 33.167969 -17.976562 C 33.960938 -24.839844 35.035156 -31.613281 36.398438 -38.292969 C 37.722656 -44.792969 38.761719 -51.324219 39.519531 -57.886719 Z M 39.519531 -57.886719 "/></g></g></g><g fill="#000000" fill-opacity="1"><g transform="translate(155.754466, 209.078866)"><g><path d="M 10.046875 -39.371094 C 10.777344 -41.777344 11.476562 -44.390625 12.144531 -47.210938 C 12.871094 -50.289062 13.828125 -53.1875 15.011719 -55.910156 C 16.320312 -58.917969 18.035156 -61.324219 20.15625 -63.136719 C 22.613281 -65.234375 25.746094 -66.0625 29.554688 -65.621094 C 33.773438 -65.136719 37.429688 -62.941406 40.527344 -59.039062 C 43.621094 -55.132812 44.871094 -50.613281 44.277344 -45.476562 L 44.242188 -45.171875 L 44.152344 -44.878906 C 43.371094 -42.382812 42.371094 -39.828125 41.152344 -37.214844 C 40.140625 -35.050781 39.503906 -32.824219 39.238281 -30.53125 C 39.222656 -30.382812 39.300781 -30.132812 39.476562 -29.789062 C 39.453125 -29.839844 39.402344 -29.886719 39.324219 -29.9375 C 39.296875 -29.957031 39.277344 -29.96875 39.261719 -29.972656 C 39.289062 -29.964844 39.332031 -29.957031 39.390625 -29.949219 C 39.835938 -29.898438 40.460938 -30.351562 41.261719 -31.3125 C 42.667969 -32.992188 44.0625 -35.132812 45.441406 -37.726562 C 46.949219 -40.558594 48.507812 -43.359375 50.125 -46.117188 C 51.878906 -49.121094 53.851562 -51.632812 56.042969 -53.660156 C 58.726562 -56.148438 61.710938 -57.203125 64.996094 -56.824219 C 67.148438 -56.574219 69.390625 -55.628906 71.722656 -53.992188 C 74 -52.390625 75.867188 -50.324219 77.316406 -47.789062 C 78.878906 -45.054688 79.464844 -42.015625 79.078125 -38.667969 C 78.914062 -37.242188 78.480469 -35.992188 77.777344 -34.914062 L 75.054688 -36.691406 L 77.933594 -35.183594 C 75.664062 -30.84375 73.074219 -26.304688 70.171875 -21.570312 C 67.207031 -16.742188 63.890625 -12.25 60.222656 -8.097656 C 56.433594 -3.808594 52.292969 -0.421875 47.804688 2.070312 C 43.035156 4.71875 37.894531 5.726562 32.382812 5.089844 C 25.988281 4.351562 20.910156 2.035156 17.152344 -1.863281 C 13.53125 -5.613281 11.089844 -9.984375 9.832031 -14.976562 C 8.621094 -19.792969 8.261719 -24.347656 8.757812 -28.644531 C 8.953125 -30.359375 9.25 -32.117188 9.644531 -33.925781 C 10.007812 -35.59375 10.34375 -37.261719 10.648438 -38.933594 L 13.84375 -38.347656 L 13.472656 -35.121094 L 13.300781 -35.140625 L 8.917969 -35.644531 Z M 16.265625 -37.484375 L 13.15625 -38.425781 L 13.53125 -41.65625 L 14.046875 -41.597656 L 17.667969 -41.179688 L 17.042969 -37.761719 C 16.722656 -36.019531 16.371094 -34.277344 15.992188 -32.542969 C 15.644531 -30.945312 15.386719 -29.398438 15.210938 -27.898438 C 14.808594 -24.390625 15.113281 -20.613281 16.136719 -16.566406 C 17.109375 -12.691406 19.007812 -9.296875 21.828125 -6.375 C 24.507812 -3.59375 28.273438 -1.925781 33.125 -1.367188 C 37.253906 -0.890625 41.097656 -1.636719 44.652344 -3.609375 C 48.488281 -5.742188 52.054688 -8.671875 55.355469 -12.402344 C 58.773438 -16.269531 61.867188 -20.460938 64.632812 -24.96875 C 67.457031 -29.578125 69.972656 -33.984375 72.175781 -38.199219 L 72.25 -38.335938 L 72.335938 -38.46875 C 72.480469 -38.6875 72.574219 -39.003906 72.625 -39.414062 C 72.847656 -41.347656 72.53125 -43.0625 71.671875 -44.5625 C 70.703125 -46.261719 69.476562 -47.628906 67.988281 -48.675781 C 66.554688 -49.679688 65.308594 -50.246094 64.25 -50.367188 C 62.945312 -50.519531 61.679688 -50.027344 60.457031 -48.894531 C 58.738281 -47.300781 57.164062 -45.285156 55.734375 -42.835938 C 54.164062 -40.152344 52.644531 -37.433594 51.179688 -34.675781 C 49.589844 -31.683594 47.945312 -29.171875 46.25 -27.144531 C 43.949219 -24.390625 41.414062 -23.175781 38.644531 -23.492188 C 36.347656 -23.757812 34.695312 -24.871094 33.691406 -26.828125 C 32.917969 -28.339844 32.617188 -29.824219 32.785156 -31.277344 C 33.128906 -34.265625 33.957031 -37.160156 35.261719 -39.964844 C 36.359375 -42.316406 37.257812 -44.601562 37.949219 -46.820312 L 41.050781 -45.847656 L 37.824219 -46.222656 C 38.210938 -49.578125 37.414062 -52.503906 35.433594 -55 C 33.453125 -57.496094 31.246094 -58.886719 28.808594 -59.167969 C 26.875 -59.390625 25.398438 -59.066406 24.375 -58.191406 C 23.011719 -57.03125 21.878906 -55.40625 20.96875 -53.320312 C 19.941406 -50.949219 19.105469 -48.417969 18.46875 -45.71875 C 17.769531 -42.765625 17.035156 -40.019531 16.265625 -37.484375 Z M 16.265625 -37.484375 "/></g></g></g><g fill="#000000" fill-opacity="1"><g transform="translate(226.160714, 217.204867)"><g><path d="M 85.0625 -73.757812 C 86.746094 -73.09375 88.570312 -72.355469 90.53125 -71.542969 C 92.875 -70.570312 94.851562 -69.273438 96.460938 -67.652344 C 98.496094 -65.597656 99.320312 -62.90625 98.9375 -59.578125 C 98.554688 -56.261719 96.714844 -53.902344 93.417969 -52.492188 C 91.390625 -51.621094 89.496094 -50.6875 87.734375 -49.683594 C 85.164062 -48.183594 82.441406 -47.558594 79.566406 -47.816406 C 77.46875 -48 75.421875 -48.097656 73.421875 -48.109375 L 73.289062 -48.109375 C 68.667969 -48.320312 64.933594 -48.019531 62.085938 -47.203125 C 59.496094 -46.464844 57.34375 -45.140625 55.625 -43.230469 C 53.726562 -41.121094 51.898438 -38.066406 50.144531 -34.070312 C 48.75 -30.75 47.523438 -27.425781 46.460938 -24.097656 C 45.421875 -20.84375 44.644531 -17.476562 44.132812 -13.992188 C 43.5 -9.753906 41.519531 -6.222656 38.191406 -3.390625 C 34.769531 -0.476562 30.980469 0.742188 26.832031 0.261719 C 24.464844 -0.0117188 22.035156 -1 19.546875 -2.699219 C 17.210938 -4.292969 15.179688 -6.21875 13.453125 -8.46875 C 11.574219 -10.921875 10.484375 -13.445312 10.179688 -16.042969 L 13.40625 -16.417969 L 10.203125 -15.890625 C 9.886719 -17.8125 9.804688 -19.742188 9.960938 -21.675781 C 10.097656 -23.382812 10.261719 -25.058594 10.453125 -26.703125 C 10.601562 -28.015625 10.785156 -29.324219 10.996094 -30.628906 C 11.191406 -31.835938 11.351562 -32.988281 11.476562 -34.085938 C 11.71875 -36.152344 11.847656 -38.234375 11.867188 -40.328125 C 11.886719 -42.316406 11.699219 -44.332031 11.304688 -46.378906 L 14.496094 -46.996094 L 11.441406 -45.886719 C 11.089844 -46.851562 11.003906 -48.105469 11.179688 -49.644531 C 11.613281 -53.398438 13.886719 -56.640625 17.996094 -59.378906 C 21.433594 -61.664062 25.503906 -63.835938 30.207031 -65.890625 C 34.714844 -67.855469 38.863281 -69.71875 42.648438 -71.480469 C 45.375 -72.761719 48.171875 -73.820312 51.042969 -74.660156 C 54.171875 -75.574219 57.445312 -75.835938 60.863281 -75.441406 C 62.464844 -75.257812 64.039062 -74.90625 65.597656 -74.390625 C 66.726562 -74.015625 67.871094 -73.761719 69.027344 -73.625 C 71.355469 -73.359375 73.675781 -73.304688 76 -73.464844 L 84.382812 -74.027344 Z M 82.679688 -67.714844 L 83.871094 -70.734375 L 84.085938 -67.492188 L 76.445312 -66.980469 C 73.726562 -66.792969 71.003906 -66.855469 68.28125 -67.171875 C 66.683594 -67.355469 65.105469 -67.707031 63.550781 -68.222656 C 62.417969 -68.597656 61.273438 -68.851562 60.117188 -68.984375 C 57.570312 -69.28125 55.152344 -69.09375 52.867188 -68.421875 C 50.320312 -67.679688 47.828125 -66.730469 45.386719 -65.585938 C 41.554688 -63.804688 37.363281 -61.921875 32.808594 -59.933594 C 28.453125 -58.03125 24.714844 -56.042969 21.597656 -53.96875 C 19.160156 -52.347656 17.839844 -50.65625 17.636719 -48.898438 C 17.597656 -48.546875 17.578125 -48.265625 17.585938 -48.050781 C 17.589844 -47.996094 17.59375 -47.960938 17.597656 -47.9375 C 17.589844 -47.980469 17.574219 -48.039062 17.546875 -48.105469 L 17.636719 -47.863281 L 17.683594 -47.613281 C 18.164062 -45.136719 18.390625 -42.6875 18.367188 -40.261719 C 18.34375 -37.941406 18.199219 -35.632812 17.933594 -33.339844 C 17.796875 -32.144531 17.621094 -30.894531 17.410156 -29.589844 C 17.214844 -28.382812 17.046875 -27.171875 16.90625 -25.957031 C 16.726562 -24.390625 16.570312 -22.789062 16.4375 -21.152344 C 16.324219 -19.746094 16.382812 -18.347656 16.613281 -16.949219 L 16.625 -16.871094 L 16.636719 -16.796875 C 16.800781 -15.386719 17.457031 -13.929688 18.613281 -12.425781 C 19.917969 -10.722656 21.449219 -9.269531 23.210938 -8.066406 C 24.820312 -6.96875 26.273438 -6.34375 27.578125 -6.191406 C 29.855469 -5.929688 31.992188 -6.644531 33.980469 -8.339844 C 36.070312 -10.117188 37.3125 -12.316406 37.703125 -14.9375 C 38.269531 -18.773438 39.125 -22.484375 40.269531 -26.074219 C 41.390625 -29.585938 42.699219 -33.121094 44.195312 -36.679688 C 46.226562 -41.316406 48.429688 -44.949219 50.796875 -47.578125 C 53.347656 -50.410156 56.515625 -52.367188 60.300781 -53.453125 C 63.828125 -54.460938 68.253906 -54.84375 73.582031 -54.601562 L 73.433594 -51.355469 L 73.449219 -54.605469 C 75.632812 -54.597656 77.863281 -54.492188 80.140625 -54.289062 C 81.640625 -54.15625 83.101562 -54.503906 84.519531 -55.332031 C 86.492188 -56.457031 88.605469 -57.5 90.859375 -58.464844 C 91.847656 -58.886719 92.386719 -59.503906 92.480469 -60.324219 C 92.625 -61.582031 92.414062 -62.5 91.84375 -63.074219 C 90.847656 -64.078125 89.582031 -64.902344 88.042969 -65.539062 C 86.117188 -66.335938 84.328125 -67.0625 82.679688 -67.714844 Z M 82.679688 -67.714844 "/></g></g></g><g fill="#000000" fill-opacity="1"><g transform="translate(305.174089, 226.324268)"><g><path d="M 7.09375 -14.035156 C 7.886719 -17.433594 9.351562 -20.523438 11.484375 -23.296875 C 13.585938 -26.027344 16 -28.207031 18.726562 -29.832031 C 21.730469 -31.617188 24.683594 -32.34375 27.59375 -32.007812 C 29.691406 -31.765625 31.765625 -30.664062 33.8125 -28.707031 C 35.527344 -27.0625 37.117188 -25.0625 38.585938 -22.699219 C 40.035156 -20.367188 41.171875 -18.027344 41.996094 -15.683594 C 42.902344 -13.09375 43.25 -10.859375 43.035156 -8.988281 L 43 -8.683594 L 42.90625 -8.390625 C 42 -5.496094 40.332031 -2.894531 37.898438 -0.589844 C 35.546875 1.636719 32.828125 3.3125 29.734375 4.4375 C 26.582031 5.585938 23.433594 5.976562 20.285156 5.613281 C 14.921875 4.992188 11.179688 2.730469 9.058594 -1.175781 C 7.148438 -4.691406 6.472656 -8.855469 7.027344 -13.667969 L 7.050781 -13.851562 Z M 13.421875 -12.554688 L 10.257812 -13.292969 L 13.484375 -12.921875 C 13.085938 -9.46875 13.515625 -6.589844 14.769531 -4.273438 C 15.816406 -2.347656 17.902344 -1.203125 21.03125 -0.84375 C 23.160156 -0.597656 25.320312 -0.871094 27.511719 -1.667969 C 29.757812 -2.484375 31.730469 -3.699219 33.429688 -5.308594 C 35.042969 -6.835938 36.136719 -8.511719 36.703125 -10.332031 L 39.804688 -9.359375 L 36.578125 -9.734375 C 36.679688 -10.617188 36.441406 -11.882812 35.863281 -13.53125 C 35.199219 -15.429688 34.265625 -17.339844 33.066406 -19.269531 C 31.886719 -21.167969 30.636719 -22.75 29.316406 -24.015625 C 28.324219 -24.964844 27.5 -25.476562 26.847656 -25.554688 C 25.394531 -25.71875 23.796875 -25.285156 22.050781 -24.246094 C 20.035156 -23.046875 18.230469 -21.410156 16.636719 -19.335938 C 15.074219 -17.304688 14.003906 -15.042969 13.421875 -12.554688 Z M 13.421875 -12.554688 "/></g></g></g><g fill="#ff3131" fill-opacity="1"><g transform="translate(31.639779, 194.754055)"><g><path d="M 1.4375 41.859375 C 2.445312 35.109375 3.882812 28.4375 5.75 21.84375 C 7.625 15.257812 9.488281 8.703125 11.34375 2.171875 C 13.195312 -4.347656 14.515625 -10.992188 15.296875 -17.765625 C 15.679688 -21.097656 15.617188 -24.59375 15.109375 -28.25 C 14.609375 -31.914062 14.535156 -35.300781 14.890625 -38.40625 C 15.671875 -45.175781 19.09375 -50.414062 25.15625 -54.125 C 31.226562 -57.84375 39.144531 -59.140625 48.90625 -58.015625 C 54.757812 -57.335938 60.210938 -55.691406 65.265625 -53.078125 C 70.316406 -50.460938 74.265625 -46.867188 77.109375 -42.296875 C 79.953125 -37.722656 80.984375 -32.050781 80.203125 -25.28125 C 79.640625 -20.46875 77.894531 -16.222656 74.96875 -12.546875 C 72.050781 -8.867188 68.300781 -6.101562 63.71875 -4.25 C 59.132812 -2.394531 54.035156 -1.789062 48.421875 -2.4375 C 46.691406 -2.632812 45.144531 -2.867188 43.78125 -3.140625 C 42.425781 -3.410156 41.234375 -3.601562 40.203125 -3.71875 C 36.984375 -4.09375 34.882812 -3.550781 33.90625 -2.09375 C 32.925781 -0.632812 31.9375 2.414062 30.9375 7.0625 C 28.570312 17.375 26.320312 27.78125 24.1875 38.28125 C 22.050781 48.789062 19.570312 59.238281 16.75 69.625 C 13.945312 79.757812 9.898438 84.519531 4.609375 83.90625 C 1.859375 83.59375 -0.125 81.707031 -1.34375 78.25 C -2.570312 74.789062 -2.929688 70.820312 -2.421875 66.34375 C -1.941406 62.21875 -1.328125 58.132812 -0.578125 54.09375 C 0.171875 50.050781 0.84375 45.972656 1.4375 41.859375 Z M 1.4375 41.859375 "/></g></g></g><g fill="#ff3131" fill-opacity="1"><g transform="translate(113.063143, 204.151607)"><g><path d="M 42.75 -57.515625 C 41.976562 -50.859375 40.921875 -44.234375 39.578125 -37.640625 C 38.242188 -31.054688 37.1875 -24.375 36.40625 -17.59375 C 36.03125 -14.382812 35.945312 -11.171875 36.15625 -7.953125 C 36.363281 -4.734375 36.289062 -1.570312 35.9375 1.53125 C 35.695312 3.59375 34.820312 5.613281 33.3125 7.59375 C 31.800781 9.570312 30.039062 11.203125 28.03125 12.484375 C 26.03125 13.765625 24.109375 14.296875 22.265625 14.078125 C 20.546875 13.878906 18.796875 12.921875 17.015625 11.203125 C 15.242188 9.492188 13.738281 7.429688 12.5 5.015625 C 11.269531 2.609375 10.617188 0.175781 10.546875 -2.28125 C 10.578125 -11.6875 11.128906 -21.035156 12.203125 -30.328125 C 13.554688 -42.035156 15.296875 -54.046875 17.421875 -66.359375 C 19.546875 -78.671875 21.691406 -90.691406 23.859375 -102.421875 C 24.890625 -108.359375 26.375 -112.4375 28.3125 -114.65625 C 30.257812 -116.875 33.179688 -117.753906 37.078125 -117.296875 C 41.316406 -116.804688 44.585938 -114.914062 46.890625 -111.625 C 49.191406 -108.34375 50.066406 -104.289062 49.515625 -99.46875 C 48.785156 -93.15625 47.722656 -87 46.328125 -81 C 44.941406 -75 43.898438 -68.953125 43.203125 -62.859375 C 43.109375 -62.054688 43.003906 -61.195312 42.890625 -60.28125 C 42.785156 -59.363281 42.738281 -58.441406 42.75 -57.515625 Z M 42.75 -57.515625 "/></g></g></g><g fill="#ff3131" fill-opacity="1"><g transform="translate(155.754466, 209.078866)"><g><path d="M 13.140625 -38.421875 C 13.898438 -40.898438 14.617188 -43.582031 15.296875 -46.46875 C 15.984375 -49.351562 16.878906 -52.066406 17.984375 -54.609375 C 19.097656 -57.160156 20.523438 -59.175781 22.265625 -60.65625 C 24.003906 -62.144531 26.304688 -62.722656 29.171875 -62.390625 C 32.503906 -62.003906 35.4375 -60.207031 37.96875 -57 C 40.507812 -53.800781 41.535156 -50.082031 41.046875 -45.84375 C 40.304688 -43.476562 39.359375 -41.054688 38.203125 -38.578125 C 37.046875 -36.097656 36.316406 -33.535156 36.015625 -30.890625 C 35.921875 -30.085938 36.113281 -29.222656 36.59375 -28.296875 C 37.070312 -27.378906 37.882812 -26.851562 39.03125 -26.71875 C 40.632812 -26.53125 42.207031 -27.363281 43.75 -29.21875 C 45.300781 -31.070312 46.820312 -33.398438 48.3125 -36.203125 C 49.800781 -39.003906 51.335938 -41.765625 52.921875 -44.484375 C 54.515625 -47.203125 56.285156 -49.460938 58.234375 -51.265625 C 60.191406 -53.078125 62.316406 -53.847656 64.609375 -53.578125 C 66.210938 -53.390625 67.957031 -52.640625 69.84375 -51.328125 C 71.738281 -50.015625 73.289062 -48.296875 74.5 -46.171875 C 75.707031 -44.054688 76.15625 -41.679688 75.84375 -39.046875 C 75.738281 -38.128906 75.476562 -37.34375 75.0625 -36.6875 C 72.8125 -32.414062 70.253906 -27.941406 67.390625 -23.265625 C 64.535156 -18.597656 61.332031 -14.257812 57.78125 -10.25 C 54.238281 -6.238281 50.382812 -3.078125 46.21875 -0.765625 C 42.0625 1.546875 37.570312 2.421875 32.75 1.859375 C 27.132812 1.210938 22.710938 -0.773438 19.484375 -4.109375 C 16.265625 -7.453125 14.09375 -11.335938 12.96875 -15.765625 C 11.851562 -20.191406 11.519531 -24.359375 11.96875 -28.265625 C 12.15625 -29.878906 12.4375 -31.535156 12.8125 -33.234375 C 13.1875 -34.929688 13.53125 -36.632812 13.84375 -38.34375 C 13.84375 -38.34375 13.785156 -38.347656 13.671875 -38.359375 C 13.554688 -38.378906 13.378906 -38.398438 13.140625 -38.421875 Z M 13.140625 -38.421875 "/></g></g></g><g fill="#ff3131" fill-opacity="1"><g transform="translate(226.160714, 217.204867)"><g><path d="M 83.859375 -70.71875 C 85.523438 -70.070312 87.332031 -69.34375 89.28125 -68.53125 C 91.226562 -67.726562 92.851562 -66.671875 94.15625 -65.359375 C 95.457031 -64.046875 95.976562 -62.242188 95.71875 -59.953125 C 95.476562 -57.878906 94.285156 -56.382812 92.140625 -55.46875 C 89.992188 -54.550781 87.984375 -53.5625 86.109375 -52.5 C 84.128906 -51.34375 82.039062 -50.859375 79.84375 -51.046875 C 77.65625 -51.242188 75.519531 -51.347656 73.4375 -51.359375 C 68.457031 -51.585938 64.375 -51.242188 61.1875 -50.328125 C 58 -49.421875 55.335938 -47.78125 53.203125 -45.40625 C 51.066406 -43.039062 49.054688 -39.695312 47.171875 -35.375 C 45.722656 -31.925781 44.453125 -28.492188 43.359375 -25.078125 C 42.265625 -21.671875 41.453125 -18.132812 40.921875 -14.46875 C 40.410156 -11.03125 38.796875 -8.160156 36.078125 -5.859375 C 33.367188 -3.554688 30.410156 -2.585938 27.203125 -2.953125 C 25.359375 -3.171875 23.414062 -3.976562 21.375 -5.375 C 19.332031 -6.78125 17.550781 -8.472656 16.03125 -10.453125 C 14.507812 -12.429688 13.632812 -14.414062 13.40625 -16.40625 C 13.132812 -18.070312 13.066406 -19.738281 13.203125 -21.40625 C 13.335938 -23.070312 13.492188 -24.707031 13.671875 -26.3125 C 13.816406 -27.570312 13.988281 -28.832031 14.1875 -30.09375 C 14.394531 -31.351562 14.566406 -32.554688 14.703125 -33.703125 C 14.953125 -35.890625 15.085938 -38.082031 15.109375 -40.28125 C 15.140625 -42.488281 14.9375 -44.726562 14.5 -47 C 14.3125 -47.46875 14.273438 -48.222656 14.390625 -49.265625 C 14.710938 -52.015625 16.515625 -54.476562 19.796875 -56.65625 C 23.078125 -58.84375 26.976562 -60.921875 31.5 -62.890625 C 36.03125 -64.867188 40.207031 -66.75 44.03125 -68.53125 C 46.601562 -69.738281 49.242188 -70.738281 51.953125 -71.53125 C 54.660156 -72.332031 57.503906 -72.5625 60.484375 -72.21875 C 61.859375 -72.0625 63.21875 -71.753906 64.5625 -71.296875 C 65.90625 -70.847656 67.269531 -70.546875 68.65625 -70.390625 C 71.175781 -70.097656 73.695312 -70.039062 76.21875 -70.21875 C 78.738281 -70.394531 81.285156 -70.5625 83.859375 -70.71875 Z M 83.859375 -70.71875 "/></g></g></g><g fill="#ff3131" fill-opacity="1"><g transform="translate(305.174089, 226.324268)"><g><path d="M 10.234375 -13.28125 C 10.941406 -16.238281 12.21875 -18.914062 14.0625 -21.3125 C 15.90625 -23.71875 18.015625 -25.625 20.390625 -27.03125 C 22.765625 -28.445312 25.039062 -29.03125 27.21875 -28.78125 C 28.59375 -28.625 30.039062 -27.816406 31.5625 -26.359375 C 33.082031 -24.898438 34.5 -23.101562 35.8125 -20.96875 C 37.132812 -18.84375 38.171875 -16.71875 38.921875 -14.59375 C 39.671875 -12.476562 39.96875 -10.734375 39.8125 -9.359375 C 39.070312 -7.003906 37.6875 -4.863281 35.65625 -2.9375 C 33.632812 -1.019531 31.289062 0.421875 28.625 1.390625 C 25.957031 2.359375 23.300781 2.691406 20.65625 2.390625 C 16.40625 1.890625 13.488281 0.1875 11.90625 -2.71875 C 10.320312 -5.632812 9.765625 -9.15625 10.234375 -13.28125 Z M 10.234375 -13.28125 "/></g></g></g><g clip-path="url(#a6bafaef3d)"><g clip-path="url(#05c59e9a1a)"><g clip-path="url(#6951e16505)"><g transform="matrix(1, 0, 0, 1, 62, 202)"><g clip-path="url(#72000ba669)"><g clip-path="url(#1a46841fa3)"><g clip-path="url(#26a7510324)"><g clip-path="url(#8ea63721bd)"><path fill="#ffffff" d="M 4.328125 -10.726562 L 267.808594 17.640625 L 259.742188 92.585938 L -3.742188 64.21875 Z M 4.328125 -10.726562 " fill-opacity="1" fill-rule="nonzero"/></g></g></g></g></g></g></g></g><g clip-path="url(#8e53a330b4)"><g clip-path="url(#b4620e65de)"><g clip-path="url(#4c703364c6)"><g clip-path="url(#55fbc0d810)"><path stroke-linecap="butt" transform="matrix(0.74569, 0.0802878, -0.0802878, 0.74569, 66.332235, 191.272912)" fill="none" stroke-linejoin="miter" d="M 176.634359 -0.00183263 C 79.084208 -0.00176142 0.0020774 22.499564 -0.00142756 50.247938 C 0.000803435 78.000932 79.0823 100.497842 176.63245 100.497771 C 274.188337 100.50232 353.270468 78.000995 353.268237 50.248 C 353.271742 22.499626 274.189688 -0.0024614 176.634359 -0.00183263 Z M 176.634359 -0.00183263 " stroke="#000000" stroke-width="4" stroke-opacity="1" stroke-miterlimit="4"/></g></g></g></g><g fill="#000000" fill-opacity="1"><g transform="translate(144.423503, 256.939068)"><g><path d="M 22.625 0.59375 L 23.21875 0.671875 L 26.828125 -32.953125 L 31.09375 -32.5 L 27.28125 2.9375 L 18.78125 2.015625 L 12.1875 -32.6875 L 11.578125 -32.75 L 7.953125 0.859375 L 3.703125 0.390625 L 7.515625 -35.046875 L 16 -34.125 Z M 22.625 0.59375 "/></g></g></g><g fill="#000000" fill-opacity="1"><g transform="translate(175.399055, 260.274178)"><g><path d="M 14.703125 -11 L 13.78125 -11.09375 L 5.171875 -35.296875 L 9.9375 -34.78125 L 16.90625 -14.453125 L 17.515625 -14.390625 L 28.671875 -32.765625 L 33.421875 -32.25 L 19.859375 -10.4375 L 18.953125 -10.546875 L 17.609375 1.890625 L 13.359375 1.4375 Z M 14.703125 -11 "/></g></g></g><g fill="#000000" fill-opacity="1"><g transform="translate(206.374608, 263.609287)"><g><path d="M 16.03125 -1.5625 C 17.476562 -1.40625 18.742188 -1.515625 19.828125 -1.890625 C 20.910156 -2.265625 21.828125 -2.828125 22.578125 -3.578125 C 23.335938 -4.335938 23.929688 -5.226562 24.359375 -6.25 C 24.796875 -7.28125 25.078125 -8.390625 25.203125 -9.578125 L 25.265625 -10.171875 L 29.515625 -9.71875 L 29.453125 -9.125 C 29.253906 -7.320312 28.800781 -5.664062 28.09375 -4.15625 C 27.382812 -2.644531 26.441406 -1.363281 25.265625 -0.3125 C 24.097656 0.726562 22.703125 1.492188 21.078125 1.984375 C 19.453125 2.484375 17.628906 2.625 15.609375 2.40625 C 11.691406 1.988281 8.769531 0.425781 6.84375 -2.28125 C 4.925781 -4.988281 4.222656 -8.703125 4.734375 -13.421875 L 5.578125 -21.3125 C 6.078125 -25.90625 7.554688 -29.347656 10.015625 -31.640625 C 12.472656 -33.929688 15.660156 -34.867188 19.578125 -34.453125 C 21.597656 -34.234375 23.347656 -33.707031 24.828125 -32.875 C 26.304688 -32.050781 27.503906 -31 28.421875 -29.71875 C 29.347656 -28.445312 30 -26.992188 30.375 -25.359375 C 30.75 -23.734375 30.835938 -22.03125 30.640625 -20.25 L 30.578125 -19.65625 L 26.328125 -20.109375 L 26.390625 -20.703125 C 26.484375 -21.859375 26.429688 -22.992188 26.234375 -24.109375 C 26.035156 -25.222656 25.648438 -26.226562 25.078125 -27.125 C 24.503906 -28.03125 23.734375 -28.78125 22.765625 -29.375 C 21.804688 -29.96875 20.601562 -30.34375 19.15625 -30.5 C 16.425781 -30.789062 14.269531 -30.015625 12.6875 -28.171875 C 11.101562 -26.328125 10.132812 -23.785156 9.78125 -20.546875 L 9 -13.265625 C 8.625 -9.785156 9.019531 -7.035156 10.1875 -5.015625 C 11.351562 -3.003906 13.300781 -1.851562 16.03125 -1.5625 Z M 16.03125 -1.5625 "/></g></g></g><g clip-path="url(#83ae2ae246)"><path fill="#000000" d="M 332.207031 229.21875 C 319.851562 229.226562 309.683594 219.496094 309.449219 207.183594 C 309.203125 194.3125 319.714844 184.246094 332.179688 184.238281 C 344.3125 184.226562 354.929688 193.804688 354.941406 206.71875 C 354.949219 219.539062 344.445312 229.226562 332.207031 229.21875 Z M 339.875 206.386719 C 339.894531 202.660156 336.886719 199.433594 332.890625 199.414062 C 328.933594 199.398438 325.804688 202.5 325.800781 206.367188 C 325.796875 210.023438 328.722656 213.28125 332.804688 213.324219 C 336.691406 213.367188 339.871094 210.222656 339.875 206.386719 Z M 314.21875 205.972656 C 313.738281 205.984375 313.472656 206.167969 313.289062 206.484375 C 313.164062 206.703125 313.109375 206.945312 313.070312 207.191406 C 312.925781 208.097656 312.96875 209.003906 313.0625 209.90625 C 313.203125 211.214844 313.511719 212.480469 314.15625 213.636719 C 315.214844 215.546875 316.65625 217.152344 318.304688 218.582031 C 318.527344 218.777344 318.777344 218.941406 319.050781 219.058594 C 319.417969 219.21875 319.773438 219.175781 320.097656 218.9375 C 320.320312 218.773438 320.40625 218.542969 320.332031 218.324219 C 320.25 218.074219 320.070312 217.925781 319.800781 217.941406 C 319.558594 217.957031 319.371094 217.859375 319.199219 217.714844 C 318.949219 217.511719 318.691406 217.308594 318.460938 217.082031 C 317.570312 216.21875 316.757812 215.289062 316.019531 214.292969 C 315.234375 213.242188 314.707031 212.074219 314.453125 210.789062 C 314.25 209.777344 314.171875 208.761719 314.242188 207.730469 C 314.261719 207.445312 314.324219 207.226562 314.613281 207.050781 C 315 206.820312 314.9375 206.296875 314.542969 206.074219 C 314.410156 205.996094 314.269531 205.96875 314.21875 205.972656 Z M 316.707031 207.609375 C 316.710938 208.65625 316.949219 209.835938 317.371094 210.894531 C 318.222656 213.019531 319.726562 214.628906 321.511719 216.015625 C 321.625 216.105469 321.757812 216.179688 321.894531 216.234375 C 322.132812 216.335938 322.382812 216.359375 322.628906 216.265625 C 322.894531 216.164062 323.054688 215.953125 323.054688 215.703125 C 323.054688 215.445312 322.914062 215.238281 322.613281 215.167969 C 322.261719 215.089844 322.003906 214.875 321.75 214.65625 C 320.890625 213.910156 320.089844 213.097656 319.449219 212.160156 C 318.457031 210.722656 317.917969 209.128906 317.953125 207.371094 C 317.957031 207.136719 317.984375 206.921875 318.171875 206.726562 C 318.417969 206.476562 318.410156 206.160156 318.214844 205.933594 C 318.015625 205.703125 317.707031 205.652344 317.40625 205.808594 C 317.09375 205.964844 316.925781 206.234375 316.828125 206.554688 C 316.714844 206.921875 316.695312 207.300781 316.707031 207.609375 Z M 348.074219 201.828125 C 348.066406 202.21875 348.203125 202.433594 348.5 202.503906 C 348.78125 202.574219 349.125 202.394531 349.269531 202.105469 C 349.382812 201.882812 349.359375 201.65625 349.300781 201.421875 C 348.898438 199.816406 348.476562 198.214844 347.859375 196.671875 C 347.566406 195.9375 347.261719 195.207031 346.816406 194.539062 C 346.113281 193.484375 345.171875 192.707031 343.988281 192.214844 C 343.738281 192.113281 343.484375 192.042969 343.210938 192.085938 C 342.871094 192.136719 342.621094 192.433594 342.636719 192.761719 C 342.648438 193.101562 342.914062 193.386719 343.269531 193.363281 C 343.53125 193.34375 343.730469 193.433594 343.9375 193.542969 C 344.710938 193.953125 345.335938 194.523438 345.808594 195.253906 C 346.089844 195.6875 346.304688 196.15625 346.507812 196.628906 C 347.175781 198.199219 347.621094 199.839844 348.039062 201.488281 C 348.066406 201.597656 348.109375 201.714844 348.074219 201.828125 Z M 344.492188 200.875 C 344.488281 201.359375 344.769531 201.644531 345.171875 201.554688 C 345.546875 201.476562 345.816406 201.128906 345.785156 200.75 C 345.773438 200.605469 345.738281 200.460938 345.6875 200.324219 C 345.292969 199.234375 344.832031 198.171875 344.160156 197.21875 C 343.828125 196.746094 343.4375 196.328125 342.949219 196.007812 C 342.75 195.878906 342.546875 195.761719 342.304688 195.730469 C 341.988281 195.6875 341.710938 195.863281 341.613281 196.15625 C 341.519531 196.433594 341.617188 196.722656 341.914062 196.851562 C 342.59375 197.144531 343.007812 197.6875 343.378906 198.273438 C 343.820312 198.96875 344.136719 199.726562 344.4375 200.488281 C 344.488281 200.613281 344.515625 200.742188 344.492188 200.875 Z M 321.101562 208.273438 C 321.105469 208.328125 321.105469 208.371094 321.117188 208.414062 C 321.351562 209.652344 321.890625 210.746094 322.757812 211.671875 C 322.957031 211.886719 323.199219 212.0625 323.492188 212.152344 C 323.847656 212.261719 324.234375 212.15625 324.457031 211.878906 C 324.589844 211.710938 324.65625 211.523438 324.570312 211.308594 C 324.480469 211.09375 324.320312 210.957031 324.09375 210.972656 C 323.792969 210.996094 323.625 210.828125 323.46875 210.632812 C 323.023438 210.089844 322.714844 209.476562 322.488281 208.820312 C 322.398438 208.574219 322.335938 208.332031 322.40625 208.054688 C 322.480469 207.769531 322.316406 207.511719 322.066406 207.410156 C 321.824219 207.308594 321.523438 207.382812 321.339844 207.589844 C 321.160156 207.785156 321.121094 208.03125 321.101562 208.273438 Z M 343.40625 201.070312 C 343.398438 201.042969 343.390625 200.980469 343.367188 200.929688 C 343.148438 200.449219 342.933594 199.972656 342.789062 199.460938 C 342.683594 199.085938 342.191406 198.972656 341.867188 199.1875 C 341.632812 199.34375 341.527344 199.613281 341.605469 199.921875 C 341.707031 200.324219 341.894531 200.691406 342.078125 201.058594 C 342.199219 201.296875 342.378906 201.496094 342.636719 201.605469 C 343.011719 201.769531 343.417969 201.5 343.40625 201.070312 Z M 343.40625 201.070312 " fill-opacity="1" fill-rule="nonzero"/></g><path fill="#000000" d="M 334.886719 206.425781 C 334.882812 207.53125 333.957031 208.449219 332.839844 208.429688 C 331.792969 208.410156 330.835938 207.652344 330.816406 206.402344 C 330.796875 205.292969 331.746094 204.394531 332.863281 204.398438 C 333.984375 204.402344 334.894531 205.3125 334.886719 206.425781 Z M 334.886719 206.425781 " fill-opacity="1" fill-rule="nonzero"/></svg>