<svg xmlns="http://www.w3.org/2000/svg" width="400" height="400" viewBox="0 0 400 400">
  <defs>
    <style>
      .motif { fill: none; stroke: #4A5D4E; stroke-width: 1.5; stroke-linecap: round; stroke-linejoin: round; }
      .motif-fill { fill: #4A5D4E; stroke: none; }
    </style>
  </defs>
  
  <!-- Pizza slice ~(30,20) -->
  <g transform="translate(20,15)">
    <path class="motif" d="M10,2 Q12,0 14,2 L26,38 Q20,42 8,42 L2,40 Z" />
    <circle class="motif-fill" cx="12" cy="18" r="2.5"/>
    <circle class="motif-fill" cx="17" cy="26" r="2"/>
    <circle class="motif-fill" cx="10" cy="30" r="2.2"/>
    <path class="motif" d="M4,38 Q14,36 25,39"/>
  </g>

  <!-- Pigeon ~(90,30) -->
  <g transform="translate(80,25)">
    <path class="motif" d="M5,18 Q3,12 8,8 Q12,5 16,7 L20,6 Q22,5 21,8 L18,10 Q22,12 24,18 Q26,22 22,24 L8,24 Q4,23 5,18Z"/>
    <circle class="motif-fill" cx="14" cy="9" r="1"/>
    <path class="motif" d="M8,24 L4,28 M10,24 L8,28 M22,24 L26,22"/>
    <path class="motif" d="M20,6 Q24,4 26,6"/>
  </g>

  <!-- Skyscraper ~(160,10) -->
  <g transform="translate(155,5)">
    <path class="motif" d="M8,50 L8,12 L12,8 L16,4 L20,8 L24,12 L24,50"/>
    <path class="motif" d="M10,18 L10,22 M14,14 L14,18 M18,14 L18,18 M22,18 L22,22"/>
    <path class="motif" d="M10,26 L10,30 M14,24 L14,28 M18,24 L18,28 M22,26 L22,30"/>
    <path class="motif" d="M10,34 L10,38 M14,32 L14,36 M18,32 L18,36 M22,34 L22,38"/>
    <path class="motif" d="M13,42 L13,50 L19,50 L19,42"/>
  </g>

  <!-- Lantern ~(230,15) -->
  <g transform="translate(225,10)">
    <path class="motif" d="M10,6 L18,6"/>
    <path class="motif" d="M14,0 L14,6"/>
    <path class="motif" d="M8,8 Q6,18 8,28 L20,28 Q22,18 20,8 Z"/>
    <path class="motif" d="M10,12 L18,12 M10,18 L18,18 M10,24 L18,24"/>
    <path class="motif" d="M12,28 L12,34 M16,28 L16,34"/>
    <path class="motif" d="M10,34 Q14,38 18,34"/>
  </g>

  <!-- Ramen bowl ~(300,20) -->
  <g transform="translate(290,15)">
    <path class="motif" d="M2,16 Q2,32 18,34 Q34,32 34,16 Z"/>
    <path class="motif" d="M0,16 L36,16"/>
    <!-- steam -->
    <path class="motif" d="M10,14 Q12,8 10,4 M18,12 Q20,6 18,2 M26,14 Q28,8 26,4"/>
    <!-- chopsticks -->
    <path class="motif" d="M28,2 L14,28 M32,0 L20,26"/>
    <!-- noodle squiggle -->
    <path class="motif" d="M10,22 Q14,20 16,24 Q18,28 22,24"/>
  </g>

  <!-- Boba cup ~(50,90) -->
  <g transform="translate(40,80)">
    <path class="motif" d="M6,8 L4,38 Q4,42 10,42 L20,42 Q26,42 26,38 L24,8 Z"/>
    <path class="motif" d="M4,8 L26,8"/>
    <!-- dome lid -->
    <path class="motif" d="M6,8 Q15,0 24,8"/>
    <!-- straw -->
    <path class="motif" d="M18,0 L16,32"/>
    <!-- tapioca pearls -->
    <circle class="motif-fill" cx="10" cy="34" r="2"/>
    <circle class="motif-fill" cx="15" cy="36" r="2"/>
    <circle class="motif-fill" cx="20" cy="34" r="2"/>
    <circle class="motif-fill" cx="12" cy="30" r="1.8"/>
    <circle class="motif-fill" cx="18" cy="30" r="1.8"/>
  </g>

  <!-- Cloud ~(130,85) -->
  <g transform="translate(120,80)">
    <path class="motif" d="M8,24 Q2,24 2,18 Q2,14 6,12 Q4,6 10,4 Q16,0 22,4 Q26,2 30,6 Q36,8 34,14 Q38,16 38,20 Q38,24 32,24 Z"/>
    <!-- inner swirl (Asian cloud style) -->
    <path class="motif" d="M12,18 Q16,14 20,18 Q24,14 28,18"/>
  </g>

  <!-- Subway car ~(210,85) -->
  <g transform="translate(200,82)">
    <path class="motif" d="M2,8 L2,30 Q2,34 6,34 L42,34 Q46,34 46,30 L46,8 Q46,4 42,4 L6,4 Q2,4 2,8Z"/>
    <!-- windows -->
    <rect class="motif" x="6" y="10" width="8" height="8" rx="1"/>
    <rect class="motif" x="18" y="10" width="8" height="8" rx="1"/>
    <rect class="motif" x="30" y="10" width="8" height="8" rx="1"/>
    <!-- door -->
    <path class="motif" d="M22,22 L22,32 M26,22 L26,32"/>
    <!-- wheels -->
    <circle class="motif" cx="10" cy="36" r="3"/>
    <circle class="motif" cx="38" cy="36" r="3"/>
    <!-- stripe -->
    <path class="motif" d="M2,22 L46,22"/>
  </g>

  <!-- Chopsticks ~(320,80) -->
  <g transform="translate(315,75)">
    <path class="motif" d="M4,0 L10,44"/>
    <path class="motif" d="M10,0 L16,44"/>
    <!-- crossed bit at top -->
    <path class="motif" d="M2,4 L18,2"/>
  </g>

  <!-- Dumpling ~(350,90) -->
  <g transform="translate(340,85)">
    <path class="motif" d="M4,18 Q4,8 18,8 Q32,8 32,18 Q32,24 18,24 Q4,24 4,18Z"/>
    <!-- pleats -->
    <path class="motif" d="M8,10 Q10,6 12,10 M14,8 Q16,4 18,8 M20,8 Q22,4 24,8 M26,10 Q28,6 30,10"/>
  </g>

  <!-- Row 3: more motifs offset -->

  <!-- Pizza 2 ~(20,170) -->
  <g transform="translate(10,165)">
    <path class="motif" d="M12,0 Q14,-1 15,1 L28,36 Q22,40 10,40 L4,38 Z"/>
    <circle class="motif-fill" cx="14" cy="16" r="2.2"/>
    <circle class="motif-fill" cx="18" cy="24" r="1.8"/>
    <path class="motif" d="M6,36 Q16,34 27,37"/>
  </g>

  <!-- Fortune cookie ~(80,170) -->
  <g transform="translate(70,165)">
    <path class="motif" d="M4,14 Q10,0 20,6 Q30,0 34,14 Q30,10 20,16 Q10,10 4,14Z"/>
    <!-- paper slip -->
    <path class="motif" d="M16,14 L24,8 L32,12"/>
  </g>

  <!-- Empire State ~(150,155) -->
  <g transform="translate(145,148)">
    <path class="motif" d="M12,55 L12,20 L10,18 L10,10 L14,6 L16,0 L18,6 L22,10 L22,18 L20,20 L20,55"/>
    <path class="motif" d="M13,26 L13,30 M16,24 L16,28 M19,26 L19,30"/>
    <path class="motif" d="M13,34 L13,38 M16,32 L16,36 M19,34 L19,38"/>
    <path class="motif" d="M13,42 L13,46 M19,42 L19,46"/>
    <path class="motif" d="M15,48 L15,55 L17,55 L17,48"/>
  </g>

  <!-- Fan ~(220,165) -->
  <g transform="translate(215,160)">
    <path class="motif" d="M18,30 L4,8 Q8,2 14,0 L18,30Z"/>
    <path class="motif" d="M18,30 L10,4 Q16,-2 22,0 L18,30Z"/>
    <path class="motif" d="M18,30 L22,0 Q28,0 32,4 L18,30Z"/>
    <path class="motif" d="M18,30 L32,4 Q36,8 36,14 L18,30Z"/>
    <!-- ribs -->
    <path class="motif" d="M18,30 L8,6 M18,30 L16,2 M18,30 L26,2 M18,30 L34,8"/>
  </g>

  <!-- Boba 2 ~(300,160) -->
  <g transform="translate(290,155)">
    <path class="motif" d="M8,10 L6,40 Q6,44 12,44 L22,44 Q28,44 28,40 L26,10 Z"/>
    <path class="motif" d="M6,10 L28,10"/>
    <path class="motif" d="M8,10 Q17,2 26,10"/>
    <path class="motif" d="M20,2 L18,34"/>
    <circle class="motif-fill" cx="12" cy="36" r="2"/>
    <circle class="motif-fill" cx="17" cy="38" r="2"/>
    <circle class="motif-fill" cx="22" cy="36" r="2"/>
  </g>

  <!-- Torii gate ~(360,160) -->
  <g transform="translate(355,155)">
    <path class="motif" d="M4,10 L36,10"/>
    <path class="motif" d="M2,6 Q18,0 36,6"/>
    <path class="motif" d="M8,10 L8,40 M30,10 L30,40"/>
    <path class="motif" d="M6,18 L32,18"/>
  </g>

  <!-- Row 4 -->

  <!-- Pigeon 2 ~(50,250) -->
  <g transform="translate(40,245)">
    <path class="motif" d="M5,18 Q3,12 8,8 Q12,5 16,7 L20,6 Q22,5 21,8 L18,10 Q22,12 24,18 Q26,22 22,24 L8,24 Q4,23 5,18Z"/>
    <circle class="motif-fill" cx="14" cy="9" r="1"/>
    <path class="motif" d="M8,24 L4,28 M10,24 L8,28 M22,24 L26,22"/>
  </g>

  <!-- Noodle box ~(130,245) -->
  <g transform="translate(120,240)">
    <path class="motif" d="M6,10 L2,36 L30,36 L26,10 Z"/>
    <path class="motif" d="M4,10 L28,10"/>
    <!-- noodles spilling out -->
    <path class="motif" d="M10,10 Q8,4 12,2 Q16,0 14,6 M18,10 Q20,4 16,0 M22,10 Q24,2 20,0"/>
    <!-- chopsticks -->
    <path class="motif" d="M20,0 L24,14 M24,0 L28,14"/>
  </g>

  <!-- Cloud 2 ~(210,250) -->
  <g transform="translate(200,245)">
    <path class="motif" d="M6,22 Q0,22 0,16 Q0,12 4,10 Q2,4 8,2 Q14,-2 20,2 Q24,0 28,4 Q34,6 32,12 Q36,14 36,18 Q36,22 30,22 Z"/>
    <path class="motif" d="M10,16 Q14,12 18,16 Q22,12 26,16"/>
  </g>

  <!-- Lantern 2 ~(300,245) -->
  <g transform="translate(295,238)">
    <path class="motif" d="M10,6 L18,6 M14,0 L14,6"/>
    <path class="motif" d="M8,8 Q6,18 8,28 L20,28 Q22,18 20,8 Z"/>
    <path class="motif" d="M10,14 L18,14 M10,20 L18,20"/>
    <path class="motif" d="M12,28 L12,34 M16,28 L16,34"/>
  </g>

  <!-- Taxi ~(360,245) -->
  <g transform="translate(350,242)">
    <path class="motif" d="M4,16 L4,28 L44,28 L44,16 L34,16 L30,8 L16,8 L12,16 Z"/>
    <rect class="motif" x="14" y="12" width="8" height="8" rx="1"/>
    <rect class="motif" x="26" y="12" width="8" height="8" rx="1"/>
    <circle class="motif" cx="12" cy="30" r="3"/>
    <circle class="motif" cx="36" cy="30" r="3"/>
    <path class="motif" d="M18,8 L20,2 L28,2 L30,8"/>
  </g>

  <!-- Row 5 -->

  <!-- Skyscraper 2 ~(20,330) -->
  <g transform="translate(15,320)">
    <path class="motif" d="M6,50 L6,14 L10,10 L14,6 L18,10 L22,14 L22,50"/>
    <path class="motif" d="M9,20 L9,24 M14,18 L14,22 M19,20 L19,24"/>
    <path class="motif" d="M9,28 L9,32 M14,26 L14,30 M19,28 L19,32"/>
    <path class="motif" d="M11,38 L11,50 L17,50 L17,38"/>
  </g>

  <!-- Dumpling 2 ~(90,335) -->
  <g transform="translate(80,330)">
    <path class="motif" d="M4,18 Q4,8 18,8 Q32,8 32,18 Q32,24 18,24 Q4,24 4,18Z"/>
    <path class="motif" d="M8,10 Q10,6 12,10 M14,8 Q16,4 18,8 M20,8 Q22,4 24,8 M26,10 Q28,6 30,10"/>
  </g>

  <!-- Subway 2 ~(170,330) -->
  <g transform="translate(160,325)">
    <path class="motif" d="M2,8 L2,30 Q2,34 6,34 L42,34 Q46,34 46,30 L46,8 Q46,4 42,4 L6,4 Q2,4 2,8Z"/>
    <rect class="motif" x="6" y="10" width="8" height="8" rx="1"/>
    <rect class="motif" x="18" y="10" width="8" height="8" rx="1"/>
    <rect class="motif" x="30" y="10" width="8" height="8" rx="1"/>
    <path class="motif" d="M2,22 L46,22"/>
    <circle class="motif" cx="10" cy="36" r="3"/>
    <circle class="motif" cx="38" cy="36" r="3"/>
  </g>

  <!-- Chopsticks 2 ~(260,335) -->
  <g transform="translate(255,330)">
    <path class="motif" d="M4,0 L10,44 M10,0 L16,44"/>
  </g>

  <!-- Fan 2 ~(310,330) -->
  <g transform="translate(305,325)">
    <path class="motif" d="M18,30 L4,8 Q8,2 14,0 L18,30Z"/>
    <path class="motif" d="M18,30 L10,4 Q16,-2 22,0 L18,30Z"/>
    <path class="motif" d="M18,30 L22,0 Q28,0 32,4 L18,30Z"/>
    <path class="motif" d="M18,30 L32,4 Q36,8 36,14 L18,30Z"/>
  </g>

  <!-- Ramen 2 ~(370,340) -->
  <g transform="translate(360,335)">
    <path class="motif" d="M2,14 Q2,28 16,30 Q30,28 30,14 Z"/>
    <path class="motif" d="M0,14 L32,14"/>
    <path class="motif" d="M8,12 Q10,6 8,2 M16,10 Q18,4 16,0 M24,12 Q26,6 24,2"/>
  </g>
</svg>